<svg xmlns="http://www.w3.org/2000/svg" version="1.1" xmlns:xlink="http://www.w3.org/1999/xlink" xmlns:svgjs="http://svgjs.dev/svgjs" width="2000" height="1500" viewBox="0 0 2000 1500"><rect width="2000" height="1500" fill="#471aa0"></rect><g transform="matrix(0.75,0,0,0.75,249.090909090909,278.98548387096776)"><svg viewBox="0 0 396 248" data-background-color="#471aa0" preserveAspectRatio="xMidYMid meet" height="1252" width="2000" xmlns="http://www.w3.org/2000/svg" xmlns:xlink="http://www.w3.org/1999/xlink"><g id="tight-bounds" transform="matrix(1,0,0,1,0.2400000000000091,0.4000000000000057)"><svg viewBox="0 0 395.52 247.2" height="247.2" width="395.52"><g><svg></svg></g><g><svg viewBox="0 0 395.52 247.2" height="247.2" width="395.52"><mask id="c10366ac-360a-4081-9330-3ab0e732185a"><rect width="640" height="400" fill="white"></rect><g transform="matrix(1,0,0,1,66.66909090909093,37.08)"><svg viewBox="0 0 262.18181818181813 173.04" height="173.04" width="262.18181818181813"><g><svg viewBox="0 0 262.18181818181813 173.04" height="173.04" width="262.18181818181813"><g><svg viewBox="0 0 262.1818181818182 173.04000000000002" height="173.04" width="262.18181818181813"><g><svg viewBox="0 0 262.1818181818182 173.04000000000002" height="173.04000000000002" width="262.1818181818182"><g id="SvgjsG1181"><svg viewBox="0 0 262.1818181818182 173.04000000000002" height="173.04000000000002" width="262.1818181818182" id="SvgjsSvg1180"><g><svg viewBox="0 0 262.1818181818182 173.04000000000002" height="173.04000000000002" width="262.1818181818182"><g transform="matrix(1,0,0,1,0,0)"><svg width="262.1818181818182" viewBox="-5.05 -39 66 43.9" height="173.04000000000002" data-palette-color="#ffffff"><path d="M3.55 0.9L3.55 0.9Q1.55 0.9 0.25 0.03-1.05-0.85-1.05-2.35L-1.05-2.35Q-1.05-3.65-0.2-4.45 0.65-5.25 1.9-5.25L1.9-5.25Q3.05-5.25 4.17-4.55 5.3-3.85 6-1.55L6-1.55Q6.25-0.9 6.68-0.88 7.1-0.85 7.45-1.4L7.45-1.4Q8.15-2.5 8.65-4.2 9.15-5.9 9.45-7.95L9.45-7.95Q9.8-10 10.15-12.43 10.5-14.85 10.9-17.6L10.9-17.6Q11.3-19.95 11.78-22.9 12.25-25.85 12.75-29.2L12.75-29.2Q13.1-31.2 11.2-32.05L11.2-32.05 10.25-32.5 10.35-33 22.9-33 22.8-32.5 21.9-32.05Q20.1-31.25 19.7-29.2L19.7-29.2 17.45-16.75Q16.65-12.55 15.78-10.08 14.9-7.6 13.9-5.95L13.9-5.95Q12-2.65 9.28-0.88 6.55 0.9 3.55 0.9ZM30.1-27.6L30.1-27.6Q28.7-27.6 27.67-28.53 26.65-29.45 26.65-31L26.65-31Q26.65-32.75 27.87-33.88 29.1-35 30.65-35L30.65-35Q32.15-35 33.1-34.05 34.05-33.1 34.05-31.6L34.05-31.6Q34.05-29.9 32.85-28.75 31.65-27.6 30.1-27.6ZM25.45 0.75L25.45 0.75Q23.9 0.75 22.9-0.05 21.9-0.85 21.9-2.4L21.9-2.4Q21.9-3.3 22.1-4.55 22.3-5.8 22.55-7.05L22.55-7.05 24.9-18.3Q25.35-20.35 23.45-21.2L23.45-21.2 22.65-21.6 22.7-22.15 32.1-24.85 32.6-24.4 28.7-6.3Q28.5-5.4 28.4-4.78 28.3-4.15 28.3-3.55L28.3-3.55Q28.3-2.45 29.3-2.45L29.3-2.45Q30.05-2.45 30.8-2.93 31.55-3.4 32.7-4.5L32.7-4.5 33.15-4.05Q31.9-2.2 29.97-0.73 28.05 0.75 25.45 0.75ZM44.5 0.75L44.5 0.75Q40.75 0.75 38.4-1.7 36.05-4.15 36.05-8.65L36.05-8.65Q36.05-11.85 37.15-14.75 38.25-17.65 40.22-19.93 42.2-22.2 44.8-23.5 47.4-24.8 50.45-24.8L50.45-24.8Q53.6-24.8 55.27-23.38 56.95-21.95 56.95-19.6L56.95-19.6Q56.95-17.65 55.12-15.75 53.3-13.85 50-12.33 46.7-10.8 42.25-10L42.25-10Q42.3-6.55 43.75-4.95 45.2-3.35 47.75-3.35L47.75-3.35Q49.9-3.35 51.7-4.53 53.5-5.7 54.75-7.3L54.75-7.3 55.25-6.95Q54.25-5 52.67-3.25 51.1-1.5 49.05-0.38 47 0.75 44.5 0.75ZM50.1-23.45L50.1-23.45Q48.95-23.45 47.62-22.45 46.3-21.45 45.12-19.73 43.95-18 43.17-15.78 42.4-13.55 42.25-11.05L42.25-11.05Q47.75-12.55 50.07-15 52.4-17.45 52.4-20.55L52.4-20.55Q52.4-22.05 51.75-22.75 51.1-23.45 50.1-23.45Z" opacity="1" transform="matrix(1,0,0,1,0,0)" fill="black" class="wordmark-text-0" id="SvgjsPath1179" stroke-width="7" stroke="black" stroke-linejoin="round"></path></svg></g></svg></g></svg></g></svg></g></svg></g></svg></g></svg></g></mask><g transform="matrix(1,0,0,1,66.66909090909093,37.08)"><svg viewBox="0 0 262.18181818181813 173.04" height="173.04" width="262.18181818181813"><g><svg viewBox="0 0 262.18181818181813 173.04" height="173.04" width="262.18181818181813"><g><svg viewBox="0 0 262.1818181818182 173.04000000000002" height="173.04" width="262.18181818181813"><g><svg viewBox="0 0 262.1818181818182 173.04000000000002" height="173.04000000000002" width="262.1818181818182"><g id="textblocktransform"><svg viewBox="0 0 262.1818181818182 173.04000000000002" height="173.04000000000002" width="262.1818181818182" id="textblock"><g><svg viewBox="0 0 262.1818181818182 173.04000000000002" height="173.04000000000002" width="262.1818181818182"><g transform="matrix(1,0,0,1,0,0)"><svg width="262.1818181818182" viewBox="-5.05 -39 66 43.9" height="173.04000000000002" data-palette-color="#ffffff"><path d="M3.55 0.9L3.55 0.9Q1.55 0.9 0.25 0.03-1.05-0.85-1.05-2.35L-1.05-2.35Q-1.05-3.65-0.2-4.45 0.65-5.25 1.9-5.25L1.9-5.25Q3.05-5.25 4.17-4.55 5.3-3.85 6-1.55L6-1.55Q6.25-0.9 6.68-0.88 7.1-0.85 7.45-1.4L7.45-1.4Q8.15-2.5 8.65-4.2 9.15-5.9 9.45-7.95L9.45-7.95Q9.8-10 10.15-12.43 10.5-14.85 10.9-17.6L10.9-17.6Q11.3-19.95 11.78-22.9 12.25-25.85 12.75-29.2L12.75-29.2Q13.1-31.2 11.2-32.05L11.2-32.05 10.25-32.5 10.35-33 22.9-33 22.8-32.5 21.9-32.05Q20.1-31.25 19.7-29.2L19.7-29.2 17.45-16.75Q16.65-12.55 15.78-10.08 14.9-7.6 13.9-5.95L13.9-5.95Q12-2.65 9.28-0.88 6.55 0.9 3.55 0.9ZM30.1-27.6L30.1-27.6Q28.7-27.6 27.67-28.53 26.65-29.45 26.65-31L26.65-31Q26.65-32.75 27.87-33.88 29.1-35 30.65-35L30.65-35Q32.15-35 33.1-34.05 34.05-33.1 34.05-31.6L34.05-31.6Q34.05-29.9 32.85-28.75 31.65-27.6 30.1-27.6ZM25.45 0.75L25.45 0.75Q23.9 0.75 22.9-0.05 21.9-0.85 21.9-2.4L21.9-2.4Q21.9-3.3 22.1-4.55 22.3-5.8 22.55-7.05L22.55-7.05 24.9-18.3Q25.35-20.35 23.45-21.2L23.45-21.2 22.65-21.6 22.7-22.15 32.1-24.85 32.6-24.4 28.7-6.3Q28.5-5.4 28.4-4.78 28.3-4.15 28.3-3.55L28.3-3.55Q28.3-2.45 29.3-2.45L29.3-2.45Q30.05-2.45 30.8-2.93 31.55-3.4 32.7-4.5L32.7-4.5 33.15-4.05Q31.9-2.2 29.97-0.73 28.05 0.75 25.45 0.75ZM44.5 0.75L44.5 0.75Q40.75 0.75 38.4-1.7 36.05-4.15 36.05-8.65L36.05-8.65Q36.05-11.85 37.15-14.75 38.25-17.65 40.22-19.93 42.2-22.2 44.8-23.5 47.4-24.8 50.45-24.8L50.45-24.8Q53.6-24.8 55.27-23.38 56.95-21.95 56.95-19.6L56.95-19.6Q56.95-17.65 55.12-15.75 53.3-13.85 50-12.33 46.7-10.8 42.25-10L42.25-10Q42.3-6.55 43.75-4.95 45.2-3.35 47.75-3.35L47.75-3.35Q49.9-3.35 51.7-4.53 53.5-5.7 54.75-7.3L54.75-7.3 55.25-6.95Q54.25-5 52.67-3.25 51.1-1.5 49.05-0.38 47 0.75 44.5 0.75ZM50.1-23.45L50.1-23.45Q48.95-23.45 47.62-22.45 46.3-21.45 45.12-19.73 43.95-18 43.17-15.78 42.4-13.55 42.25-11.05L42.25-11.05Q47.75-12.55 50.07-15 52.4-17.45 52.4-20.55L52.4-20.55Q52.4-22.05 51.75-22.75 51.1-23.45 50.1-23.45Z" opacity="1" transform="matrix(1,0,0,1,0,0)" fill="#ffffff" class="wordmark-text-0" data-fill-palette-color="primary" id="text-0"></path></svg></g></svg></g></svg></g></svg></g></svg></g></svg></g></svg></g><g mask="url(#c10366ac-360a-4081-9330-3ab0e732185a)"><g transform="matrix(2.452, 0, 0, 2.452, 90.83073200000001, 1)"><svg xmlns="http://www.w3.org/2000/svg" xmlns:xlink="http://www.w3.org/1999/xlink" version="1.1" x="0" y="0" viewBox="6.391 0 87.21799999999999 100" enable-background="new 0 0 100 100" xml:space="preserve" height="100" width="87.21799999999999" class="icon-none" data-fill-palette-color="accent" id="none"><path fill="#ffffff" d="M77.806 12.728C67.152 12.728 56.381 8.48 50 0 43.62 8.479 32.846 12.727 22.193 12.727 16.685 12.727 11.21 11.592 6.391 9.318 6.931 23.634 7.995 38.143 10.39 52.28 11.612 60.029 12.812 69.168 17.056 75.948 20.785 82.476 26.571 87.817 32.778 91.954A69.4 69.4 0 0 0 47.965 99.566C48.818 99.869 49.467 100 50.065 100 51.101 100 51.982 99.606 53.499 99.026 65.779 94.311 78.959 85.638 84.381 73.171 89.259 62.078 90.335 48.898 91.587 36.981 92.555 27.792 93.258 18.555 93.609 9.318 88.79 11.592 83.312 12.728 77.806 12.728M81.641 35.937L81.374 38.505C80.978 42.329 80.577 46.199 80.048 50.001H50V89.659L49.997 89.66A59.5 59.5 0 0 1 38.324 83.634C32.66 79.859 28.308 75.487 25.74 70.989L25.64 70.814 25.533 70.643C22.656 66.046 21.517 58.733 20.512 52.28L20.268 50.723 20.259 50.667 20.249 50.611C20.215 50.41 20.184 50.203 20.15 50.002H50V13.899C57.62 19.538 67.418 22.728 77.806 22.728A50 50 0 0 0 82.852 22.471 440 440 0 0 1 81.641 35.937" data-fill-palette-color="accent"></path></svg></g></g></svg></g><defs></defs></svg><rect width="395.52" height="247.2" fill="none" stroke="none" visibility="hidden"></rect></g></svg></g></svg>